# xmcd CD database file
#
# Track frame offsets:
#	150
#	12870
#	30881
#	42951
#	59205
#	68356
#	84907
#	99779
#	113155
#	132141
#	149459
#	163640
#	180118
#	191880
#	204819
#
# Disc length: 2925 seconds
#
# Revision: 0
# Processed by: cddbd v1.4PL0 Copyright (c) Steve Scherf et al.
# Submitted via: CDex 1.40Release
#
DISCID=b50b6b0f
DTITLE=Mixed - Great Songs About Horses
DYEAR=2002
DGENRE=Country
TTITLE0=Back In The Saddle Again
TTITLE1=Horses In Heaven
TTITLE2=Four Legged Friend
TTITLE3=Charlie Grey Mule
TTITLE4=Mr. Ed
TTITLE5=The Blizzard
TTITLE6=Tennessee Stud
TTITLE7=Cowboy In A Continental Suit
TTITLE8=Run For The Roses
TTITLE9=Wildfire
TTITLE10=Old Paint
TTITLE11=The Old Grey Mare
TTITLE12=The Electrified Donkey
TTITLE13=Old Showboat
TTITLE14=Holly and Tenbrooks
EXTD=YEAR: 2002 ID3G: 2
EXTT0=
EXTT1=
EXTT2=
EXTT3=
EXTT4=
EXTT5=
EXTT6=
EXTT7=
EXTT8=
EXTT9=
EXTT10=
EXTT11=
EXTT12=
EXTT13=
EXTT14=
PLAYORDER=
